<svg width="12" height="14" viewBox="0 0 12 14" fill="none" xmlns="http://www.w3.org/2000/svg">
<path d="M1.00001 8.00006L8.59001 8.00006L5.29001 11.2901C5.10171 11.4784 4.99592 11.7338 4.99592 12.0001C4.99592 12.2664 5.10171 12.5218 5.29001 12.7101C5.47832 12.8984 5.73371 13.0042 6.00001 13.0042C6.26631 13.0042 6.52171 12.8984 6.71001 12.7101L11.71 7.71006C11.8011 7.61495 11.8724 7.50281 11.92 7.38006C12.02 7.1366 12.02 6.86352 11.92 6.62006C11.8724 6.49731 11.8011 6.38516 11.71 6.29006L6.71001 1.29006C6.61705 1.19633 6.50645 1.12194 6.38459 1.07117C6.26273 1.0204 6.13202 0.994261 6.00001 0.994261C5.868 0.994261 5.73729 1.0204 5.61543 1.07117C5.49357 1.12194 5.38297 1.19633 5.29001 1.29006C5.19628 1.38302 5.12189 1.49362 5.07112 1.61548C5.02035 1.73734 4.99421 1.86805 4.99421 2.00006C4.99421 2.13207 5.02035 2.26278 5.07112 2.38464C5.12189 2.5065 5.19628 2.6171 5.29001 2.71006L8.59001 6.00006L1.00001 6.00006C0.734795 6.00006 0.480441 6.10542 0.292904 6.29295C0.105368 6.48049 1.18497e-05 6.73484 1.18729e-05 7.00006C1.18961e-05 7.26528 0.105368 7.51963 0.292904 7.70717C0.480441 7.8947 0.734795 8.00006 1.00001 8.00006Z" fill="#EDEEF2"/>
</svg>
